<?xml version="1.0" encoding="UTF-8" standalone="no"?>
<!DOCTYPE svg PUBLIC "-//W3C//DTD SVG 1.1//EN" "http://www.w3.org/Graphics/SVG/1.1/DTD/svg11.dtd">
<svg xmlns="http://www.w3.org/2000/svg" version="1.1" viewBox="0.00 0.00 1024.00 1024.00">
<path fill="#ea6b03" d="
  M 686.97 334.39
  C 623.65 269.84 527.95 248.90 444.46 283.50
  C 403.74 300.37 369.04 330.79 345.02 367.66
  A 1.15 1.15 0.0 0 1 343.23 367.83
  Q 329.71 353.77 316.65 339.82
  C 315.16 338.23 314.73 336.75 316.17 334.83
  Q 381.72 247.13 490.34 228.06
  Q 497.11 226.88 510.51 225.87
  Q 521.38 225.05 530.48 225.25
  C 608.37 226.96 678.19 260.48 728.86 319.22
  A 0.57 0.57 0.0 0 1 728.60 320.13
  Q 708.55 326.48 689.23 334.83
  A 2.04 2.04 0.0 0 1 686.97 334.39
  Z"
/>
<path fill="#2ea9f6" d="
  M 390.65 434.56
  Q 389.68 434.63 388.51 433.54
  A 0.49 0.49 0.0 0 0 387.69 433.85
  L 387.59 434.82
  Q 387.55 435.25 387.11 435.24
  Q 383.29 435.13 373.51 434.36
  Q 361.48 433.40 349.46 432.43
  Q 340.38 431.70 329.56 430.48
  Q 310.17 428.31 290.74 426.51
  Q 286.11 426.09 282.22 426.07
  A 2.62 2.60 73.8 0 1 280.01 424.84
  Q 269.38 407.91 258.25 391.44
  C 254.62 386.07 250.63 379.35 246.56 373.50
  Q 244.41 370.39 237.78 360.36
  Q 231.44 350.77 223.48 342.42
  Q 222.29 341.17 220.60 339.02
  Q 219.19 337.22 217.57 335.53
  A 0.42 0.41 28.9 0 0 216.86 335.73
  L 216.60 337.05
  L 199.73 307.39
  A 1.06 1.05 -26.1 0 1 200.24 305.90
  L 232.66 292.32
  A 0.74 0.73 52.8 0 1 233.42 292.43
  Q 235.79 294.36 240.09 298.41
  C 263.67 320.61 287.14 342.94 310.18 365.71
  Q 325.89 381.23 353.80 407.42
  Q 372.13 424.61 390.65 434.56
  Z"
/>
<path fill="#2ea9f6" d="
  M 630.49 357.93
  C 602.63 369.35 574.04 379.23 545.90 389.58
  A 1.35 1.34 64.1 0 1 544.28 389.01
  C 529.79 364.68 516.28 339.84 501.72 315.55
  C 500.76 313.93 498.63 312.42 496.64 311.73
  Q 481.56 306.57 467.10 300.40
  Q 466.56 300.18 467.14 300.11
  Q 488.32 297.51 509.50 293.97
  C 513.40 293.32 518.15 295.12 522.11 297.29
  Q 576.50 327.03 630.52 357.42
  Q 631.03 357.70 630.49 357.93
  Z"
/>
<path fill="#2ea9f6" d="
  M 925.56 339.64
  Q 908.05 346.07 883.50 352.19
  Q 846.34 361.45 823.75 366.48
  Q 815.67 368.27 807.17 369.56
  Q 799.02 370.79 790.46 371.98
  Q 794.96 366.14 796.40 360.01
  A 0.35 0.35 0.0 0 0 795.96 359.60
  L 758.56 370.87
  A 1.22 1.22 0.0 0 1 757.10 370.19
  Q 754.91 365.21 753.20 359.78
  C 751.26 353.64 745.47 352.16 740.67 356.15
  A 1.26 1.25 73.2 0 0 740.22 357.00
  C 739.70 361.90 742.96 368.43 744.52 373.14
  Q 745.51 376.10 742.50 376.94
  L 734.34 379.22
  A 2.36 2.36 0.0 0 1 731.55 377.89
  Q 729.26 372.69 727.13 367.14
  C 724.81 361.09 719.58 361.06 715.41 365.08
  Q 715.04 365.43 715.00 365.94
  C 714.52 371.08 717.43 376.39 719.12 381.27
  Q 720.14 384.19 717.18 385.12
  L 708.58 387.83
  A 2.18 2.18 0.0 0 1 705.87 386.49
  Q 703.72 380.52 701.38 374.43
  Q 699.73 370.15 694.55 371.30
  Q 691.59 371.96 690.05 372.80
  A 1.21 1.20 81.5 0 0 689.44 373.63
  C 688.63 378.03 692.15 385.60 693.44 389.85
  Q 694.31 392.74 691.44 393.67
  L 682.85 396.44
  A 1.46 1.45 69.6 0 1 681.07 395.62
  C 679.35 391.51 677.06 383.45 673.95 380.27
  A 1.54 1.53 71.1 0 0 673.00 379.80
  Q 668.66 379.35 664.82 381.32
  Q 664.33 381.57 664.23 382.11
  C 663.47 386.45 666.61 393.70 668.00 397.95
  Q 668.92 400.76 666.10 401.66
  L 657.83 404.30
  A 2.05 2.04 69.9 0 1 655.32 403.13
  Q 653.38 398.44 651.11 393.19
  C 649.44 389.31 649.31 387.63 644.79 388.08
  Q 641.11 388.44 638.98 389.65
  A 0.93 0.92 -17.7 0 0 638.51 390.55
  Q 639.33 398.14 642.53 404.96
  Q 644.12 408.35 641.03 409.66
  Q 636.73 411.48 632.19 412.41
  Q 630.82 412.68 630.30 411.39
  Q 627.74 405.07 624.97 398.80
  C 623.22 394.83 616.28 396.18 613.91 398.98
  A 1.55 1.48 67.8 0 0 613.56 399.87
  C 613.30 404.57 616.07 409.52 617.43 414.08
  Q 617.92 415.75 616.24 416.20
  L 504.72 445.94
  A 0.03 0.03 0.0 0 0 504.72 445.99
  Q 505.05 446.07 505.21 446.28
  C 493.76 446.19 480.95 445.32 470.93 445.05
  Q 453.96 444.59 437.00 443.84
  Q 430.90 443.58 424.86 442.72
  Q 424.42 442.66 424.19 442.46
  Q 423.82 442.13 423.93 441.69
  C 446.20 434.09 468.63 427.13 490.98 419.78
  C 579.73 390.59 667.57 358.83 755.92 328.47
  C 784.88 318.52 814.94 311.37 845.77 312.80
  C 851.15 313.05 856.78 314.52 862.42 315.22
  A 0.25 0.25 0.0 0 1 862.49 315.69
  Q 836.75 327.05 809.78 335.04
  A 0.23 0.23 0.0 0 0 809.76 335.47
  Q 814.03 337.30 818.39 339.11
  C 830.31 344.04 841.14 344.94 853.65 340.86
  Q 871.59 335.02 887.21 324.24
  Q 888.13 323.60 889.48 324.09
  C 903.85 329.28 914.33 332.54 925.56 339.64
  Z"
/>
<path fill="#2694db" d="
  M 390.65 434.56
  Q 401.55 439.82 413.20 442.44
  L 271.65 436.49
  Q 251.28 401.13 232.38 365.72
  C 227.60 356.75 221.72 346.69 216.60 337.05
  L 216.86 335.73
  A 0.42 0.41 28.9 0 1 217.57 335.53
  Q 219.19 337.22 220.60 339.02
  Q 222.29 341.17 223.48 342.42
  Q 231.44 350.77 237.78 360.36
  Q 244.41 370.39 246.56 373.50
  C 250.63 379.35 254.62 386.07 258.25 391.44
  Q 269.38 407.91 280.01 424.84
  A 2.62 2.60 73.8 0 0 282.22 426.07
  Q 286.11 426.09 290.74 426.51
  Q 310.17 428.31 329.56 430.48
  Q 340.38 431.70 349.46 432.43
  Q 361.48 433.40 373.51 434.36
  Q 383.29 435.13 387.11 435.24
  Q 387.55 435.25 387.59 434.82
  L 387.69 433.85
  A 0.49 0.49 0.0 0 1 388.51 433.54
  Q 389.68 434.63 390.65 434.56
  Z"
/>
<path fill="#2694db" d="
  M 925.56 339.64
  Q 928.29 340.28 928.71 342.98
  C 930.23 352.88 923.16 361.51 916.31 368.81
  Q 916.35 368.60 916.36 368.42
  Q 916.39 367.88 915.89 368.07
  Q 913.93 368.79 911.69 368.57
  Q 911.18 368.53 910.78 368.22
  C 909.33 367.14 907.73 368.29 906.58 368.42
  C 903.80 368.72 901.24 368.21 898.65 369.45
  Q 886.38 375.32 877.99 377.85
  Q 851.63 385.82 813.02 394.49
  Q 791.08 399.42 769.28 404.90
  Q 764.72 406.05 759.80 408.64
  Q 731.29 423.67 709.05 446.15
  C 705.72 449.52 702.86 453.57 699.92 457.42
  Q 698.51 459.26 694.90 459.39
  Q 691.92 450.94 682.47 447.58
  C 675.26 445.01 670.03 444.46 660.42 443.16
  C 639.65 440.36 619.09 440.36 598.50 439.59
  Q 592.26 439.35 587.55 439.70
  Q 582.34 440.09 587.36 438.65
  Q 675.10 413.51 765.25 388.25
  Q 781.36 383.73 790.46 371.98
  Q 799.02 370.79 807.17 369.56
  Q 815.67 368.27 823.75 366.48
  Q 846.34 361.45 883.50 352.19
  Q 908.05 346.07 925.56 339.64
  Z"
/>
<path fill="#2479b3" d="
  M 916.31 368.81
  C 900.25 384.76 881.60 392.76 859.98 399.65
  Q 831.05 408.87 801.99 417.70
  Q 783.21 423.41 761.26 433.87
  C 733.26 447.21 708.79 466.44 688.86 490.21
  A 0.29 0.29 0.0 0 1 688.37 489.92
  Q 693.26 477.35 695.65 463.99
  Q 696.00 461.99 694.90 459.39
  Q 698.51 459.26 699.92 457.42
  C 702.86 453.57 705.72 449.52 709.05 446.15
  Q 731.29 423.67 759.80 408.64
  Q 764.72 406.05 769.28 404.90
  Q 791.08 399.42 813.02 394.49
  Q 851.63 385.82 877.99 377.85
  Q 886.38 375.32 898.65 369.45
  C 901.24 368.21 903.80 368.72 906.58 368.42
  C 907.73 368.29 909.33 367.14 910.78 368.22
  Q 911.18 368.53 911.69 368.57
  Q 913.93 368.79 915.89 368.07
  Q 916.39 367.88 916.36 368.42
  Q 916.35 368.60 916.31 368.81
  Z"
/>
<path fill="#1f3a50" d="
  M 271.65 436.49
  L 413.20 442.44
  Q 418.79 443.11 423.93 441.69
  Q 423.82 442.13 424.19 442.46
  Q 424.42 442.66 424.86 442.72
  Q 430.90 443.58 437.00 443.84
  Q 453.96 444.59 470.93 445.05
  C 480.95 445.32 493.76 446.19 505.21 446.28
  Q 549.85 447.75 578.75 449.51
  Q 589.02 450.14 604.57 452.61
  Q 587.89 453.94 572.77 458.28
  Q 564.46 460.67 556.52 464.75
  A 0.52 0.51 42.8 0 0 556.56 465.68
  L 585.21 477.60
  A 0.52 0.52 0.0 0 1 585.13 478.59
  Q 573.14 481.56 561.53 486.48
  C 557.65 488.12 553.33 489.63 554.57 495.02
  C 558.92 513.91 611.12 509.75 625.09 508.15
  Q 625.58 508.09 625.60 507.60
  C 626.56 485.37 640.51 464.97 660.01 454.50
  C 678.73 452.53 686.11 467.36 681.34 483.75
  Q 673.03 512.29 646.20 524.73
  C 637.63 528.70 625.86 532.26 615.74 534.73
  Q 584.95 542.23 553.24 544.04
  C 550.22 544.22 547.16 545.52 544.22 547.22
  Q 516.51 563.27 487.08 576.94
  Q 477.73 580.30 463.71 584.14
  Q 428.33 593.83 395.50 599.50
  Q 371.68 603.61 356.19 605.25
  Q 399.46 594.61 440.26 577.81
  C 470.30 565.44 501.11 546.84 522.99 522.47
  C 527.44 517.51 531.66 511.65 532.34 505.15
  C 533.80 491.25 520.89 488.06 509.24 486.34
  Q 481.70 482.28 454.00 479.51
  Q 355.86 469.71 257.92 458.18
  Q 248.09 457.02 238.08 455.69
  Q 164.59 445.95 90.89 435.48
  A 0.30 0.30 0.0 0 1 90.91 434.88
  C 110.98 433.04 131.05 432.44 151.24 432.88
  Q 199.25 433.92 247.25 435.36
  Q 259.30 435.72 271.65 436.49
  Z
  M 640.4785 514.7191
  A 23.49 11.67 110.8 0 0 659.7294 496.9041
  A 23.49 11.67 110.8 0 0 657.1615 470.8009
  A 23.49 11.67 110.8 0 0 637.9106 488.6159
  A 23.49 11.67 110.8 0 0 640.4785 514.7191
  Z"
/>
<path fill="#1f3a50" d="
  M 816.18 517.25
  C 813.37 576.31 791.23 634.19 752.60 679.11
  C 739.00 694.92 723.80 709.63 707.19 722.26
  Q 637.77 775.08 548.24 780.72
  Q 522.65 782.34 499.97 780.47
  C 473.14 778.27 447.54 774.03 421.77 765.53
  A 0.42 0.42 0.0 0 1 421.85 764.72
  Q 448.20 760.91 474.48 755.54
  Q 484.91 753.41 493.94 750.97
  C 578.24 728.15 658.68 684.14 718.37 619.12
  Q 758.08 575.86 779.68 522.48
  Q 785.22 508.78 791.32 489.19
  Q 799.39 463.23 807.43 437.75
  A 0.58 0.58 0.0 0 1 808.54 437.77
  C 815.68 463.38 817.43 490.79 816.18 517.25
  Z"
/>
<path fill="#1f3a50" d="
  M 487.96 654.67
  Q 577.43 620.67 650.65 559.11
  C 663.05 548.69 674.87 538.37 687.03 526.90
  Q 720.33 495.50 736.24 481.48
  C 749.09 470.14 762.85 459.27 777.91 450.98
  A 0.44 0.44 0.0 0 1 778.53 451.52
  C 740.69 549.82 668.63 627.88 575.13 675.88
  C 516.64 705.90 450.58 726.59 385.56 728.45
  Q 351.16 729.43 322.50 724.77
  Q 275.74 717.17 233.32 692.19
  C 215.33 681.60 199.17 668.46 184.83 653.20
  A 0.18 0.18 0.0 0 1 185.07 652.93
  C 203.02 666.14 226.03 674.61 247.63 679.39
  Q 277.69 686.03 308.50 687.04
  Q 382.40 689.45 454.10 666.28
  Q 476.18 659.15 487.96 654.67
  Z"
/>
<path fill="#2694db" d="
  M 604.57 452.61
  L 660.01 454.50
  C 640.51 464.97 626.56 485.37 625.60 507.60
  Q 625.58 508.09 625.09 508.15
  C 611.12 509.75 558.92 513.91 554.57 495.02
  C 553.33 489.63 557.65 488.12 561.53 486.48
  Q 573.14 481.56 585.13 478.59
  A 0.52 0.52 0.0 0 0 585.21 477.60
  L 556.56 465.68
  A 0.52 0.51 42.8 0 1 556.52 464.75
  Q 564.46 460.67 572.77 458.28
  Q 587.89 453.94 604.57 452.61
  Z"
/>
<path fill="#1f3a50" d="
  M 351.90 525.49
  Q 380.36 520.00 408.42 511.81
  Q 426.12 507.37 444.20 500.00
  Q 445.99 499.54 448.01 499.84
  Q 460.69 501.73 473.36 503.03
  A 0.26 0.26 0.0 0 1 473.46 503.51
  Q 463.92 509.03 454.24 514.47
  C 398.56 545.78 336.91 562.93 273.00 562.29
  Q 259.58 562.16 253.00 561.91
  C 206.10 560.18 124.21 546.10 120.84 484.16
  C 120.35 475.06 121.11 464.88 123.16 455.61
  A 0.40 0.40 0.0 0 1 123.94 455.61
  C 124.74 459.29 125.12 463.39 126.03 466.67
  C 131.85 487.81 147.42 505.25 166.54 515.41
  C 189.49 527.61 215.60 532.74 241.25 534.22
  Q 248.62 534.65 271.75 534.78
  C 298.48 534.94 325.72 531.07 351.90 525.49
  Z"
/>
<path fill="#2694db" d="
  M 444.20 500.00
  Q 426.12 507.37 408.42 511.81
  Q 404.68 511.27 398.51 512.61
  Q 395.36 513.30 387.01 513.60
  C 377.46 513.96 367.19 513.10 357.25 513.34
  Q 347.86 513.56 341.76 513.33
  C 334.41 513.06 326.46 513.34 319.24 511.99
  Q 316.21 511.43 313.19 509.48
  Q 309.61 507.18 306.07 504.78
  C 301.66 501.80 294.50 501.31 289.50 500.95
  Q 262.07 498.92 232.67 499.26
  C 231.57 499.28 230.04 498.80 228.66 499.42
  A 0.65 0.64 -23.7 0 0 228.33 500.25
  Q 228.94 501.71 231.13 502.68
  L 220.16 499.89
  A 0.48 0.48 0.0 0 1 220.11 498.97
  C 230.41 495.17 240.03 490.43 251.33 487.71
  C 263.62 484.75 276.85 483.33 289.50 481.75
  Q 291.56 481.49 293.62 481.72
  Q 341.13 487.09 388.56 493.04
  Q 394.77 493.82 408.44 495.23
  Q 425.84 497.03 444.20 500.00
  Z"
/>
<path fill="#2479b3" d="
  M 408.42 511.81
  Q 380.36 520.00 351.90 525.49
  Q 346.00 524.50 340.28 523.26
  Q 332.98 521.67 328.67 520.94
  Q 287.92 514.04 247.25 506.72
  Q 243.16 505.99 231.13 502.68
  Q 228.94 501.71 228.33 500.25
  A 0.65 0.64 -23.7 0 1 228.66 499.42
  C 230.04 498.80 231.57 499.28 232.67 499.26
  Q 262.07 498.92 289.50 500.95
  C 294.50 501.31 301.66 501.80 306.07 504.78
  Q 309.61 507.18 313.19 509.48
  Q 316.21 511.43 319.24 511.99
  C 326.46 513.34 334.41 513.06 341.76 513.33
  Q 347.86 513.56 357.25 513.34
  C 367.19 513.10 377.46 513.96 387.01 513.60
  Q 395.36 513.30 398.51 512.61
  Q 404.68 511.27 408.42 511.81
  Z"
/>
<path fill="#ea6b03" d="
  M 356.19 605.25
  Q 371.68 603.61 395.50 599.50
  Q 428.33 593.83 463.71 584.14
  Q 477.73 580.30 487.08 576.94
  L 592.82 553.36
  Q 593.85 553.13 593.01 553.77
  Q 541.13 593.20 479.44 616.03
  C 432.21 633.52 384.06 644.00 333.75 645.98
  Q 324.40 646.35 296.01 645.89
  Q 274.92 645.55 249.08 641.44
  Q 218.39 636.56 190.51 623.44
  C 165.64 611.73 144.49 592.87 136.90 565.58
  A 0.17 0.16 -74.1 0 1 137.18 565.42
  Q 145.05 574.06 155.16 580.04
  Q 183.86 597.00 216.75 602.76
  C 235.58 606.06 254.21 607.70 273.51 608.08
  C 303.75 608.69 328.66 608.90 356.19 605.25
  Z"
/>
</svg>
